# xmcd CD database file
#
# Track frame offsets:
#	150
#	17604
#	31151
#	45343
#	65326
#	82229
#	100592
#	121549
#	139787
#	158007
#	172581
#	185503
#	202220
#	221541
#	236432
#	249121
#	265031
#	287673
#	300011
#	318055
#
# Disc length: 4452 seconds
#
# Revision: 0
# Processed by: cddbd v1.5PL3 Copyright (c) Steve Scherf et al.
# Submitted via: CDex 1.51
#
DISCID=ef116214
DTITLE=Lightnin' Hopkins - Fishin' clothes [CD1]
DYEAR=2001
DGENRE=Blues
TTITLE0=Wig Wearing Woman
TTITLE1=Move On Out Part 1 (Inst.)
TTITLE2=Move On Out Part 2 (Inst.)
TTITLE3=Back Door Friend
TTITLE4=Fishing Clothes (Unedited Version)
TTITLE5=Gamblers Blues
TTITLE6=Moaning Blues AKA Morning Blues
TTITLE7=Found My Baby Crying
TTITLE8=My Money Is What You Want
TTITLE9=Race Track (Inst.)
TTITLE10=Long Way From Home
TTITLE11=I'm Tired Of Trouble
TTITLE12=Vietnam War Parts 1 And 2
TTITLE13=Walkin' Blues
TTITLE14=Talkin' Some Sense
TTITLE15=Lonesome Lightnin'
TTITLE16=My Suggestion
TTITLE17=Uncle Stan The Hip Hit Record Man (Inst.)
TTITLE18=You're Gonna Miss Me
TTITLE19=The Purple Puppy (Inst.)
EXTD=YEAR: 2001
EXTT0=
EXTT1=
EXTT2=
EXTT3=
EXTT4=
EXTT5=
EXTT6=
EXTT7=
EXTT8=
EXTT9=
EXTT10=
EXTT11=
EXTT12=
EXTT13=
EXTT14=
EXTT15=
EXTT16=
EXTT17=
EXTT18=
EXTT19=
PLAYORDER=
